<svg width="40" height="40" viewBox="0 0 40 40" fill="none" xmlns="http://www.w3.org/2000/svg">
<rect width="40" height="40" fill="#0F2D69"/>
<path d="M19.7201 30.5803C19.7449 29.3116 20.1011 28.0459 20.3476 26.8083C20.7987 24.5426 21.2351 22.2623 21.4666 19.9614C21.6643 17.997 21.7534 15.5266 20.0966 14.1046C19.697 13.7616 19.2456 13.6115 18.723 13.5538C17.5499 13.4241 16.3407 13.5251 15.195 13.7978C13.3756 14.2308 11.7998 15.1759 10.0564 15.7884C10.0176 15.802 9.92437 15.8457 9.93433 15.8059C9.96582 15.6799 10.1094 15.6129 10.2097 15.5304C11.4173 14.5381 12.8141 13.7714 14.2189 13.1006C16.8862 11.8269 19.6928 10.9308 22.5752 10.2907C23.9576 9.98375 25.0612 9.78693 26.4449 9.61787C27.6605 9.46936 28.8546 9.47745 30.074 9.43311" stroke="white" stroke-width="1.66667" stroke-linecap="round"/>
</svg>
